<svg width="34" height="34" viewBox="0 0 34 34" fill="none" xmlns="http://www.w3.org/2000/svg">
    <path d="M0 6C0 2.68629 2.68629 1.90735e-06 6 1.90735e-06H28C31.3137 1.90735e-06 34 2.68629 34 6V17.5V28C34 31.3137 31.3137 34 28 34H6C2.68629 34 0 31.3137 0 28V6Z" fill="currentColor" />
    <path d="M10 10.5C10 9.39543 10.8954 8.5 12 8.5H22C23.1046 8.5 24 9.39543 24 10.5V10.5C24 11.6046 23.1046 12.5 22 12.5H12C10.8954 12.5 10 11.6046 10 10.5V10.5Z" fill="#F5F5F5" />
    <path d="M10 23.5C10 22.3954 10.8954 21.5 12 21.5H22C23.1046 21.5 24 22.3954 24 23.5V23.5C24 24.6046 23.1046 25.5 22 25.5H12C10.8954 25.5 10 24.6046 10 23.5V23.5Z" fill="#F5F5F5" />
    <path d="M15 11H19V22H15V11Z" fill="#F5F5F5" />
</svg>
